<svg width="40" height="38" viewBox="0 0 40 38" fill="none" xmlns="http://www.w3.org/2000/svg">
<path d="M27.8269 6.9974V1.76864H2.11261V25.298H16.2303V26.8667H2.11261C1.27722 26.8667 0.600006 26.1644 0.600006 25.298V1.76864C0.600006 0.902311 1.27722 0.200012 2.11261 0.200012H27.8269C28.6623 0.200012 29.3395 0.902311 29.3395 1.76864V13.2719H27.8269V8.56602H2.11261V6.9974H27.8269Z" fill="#4AB048"/>
<path d="M28.8355 37.0627C23.127 37.0627 18.4993 32.2637 18.4993 26.3438C18.4993 20.4239 23.127 15.6248 28.8355 15.6248C34.544 15.6248 39.1716 20.4239 39.1716 26.3438C39.1716 32.2637 34.544 37.0627 28.8355 37.0627ZM28.8355 35.4941C33.7086 35.4941 37.659 31.3974 37.659 26.3438C37.659 21.2902 33.7086 17.1934 28.8355 17.1934C23.9624 17.1934 20.0119 21.2902 20.0119 26.3438C20.0119 31.3974 23.9624 35.4941 28.8355 35.4941Z" fill="#4AB048"/>
<path d="M29.5919 26.8667V20.0693C29.5919 19.6361 29.2533 19.285 28.8356 19.285C28.4179 19.285 28.0793 19.6361 28.0793 20.0693V26.8667C28.0793 27.2998 28.4179 27.651 28.8356 27.651C29.2533 27.651 29.5919 27.2998 29.5919 26.8667Z" fill="#4AB048"/>
<path d="M29.2248 27.5392L33.0063 25.1863C33.3645 24.9634 33.4807 24.4817 33.2658 24.1102C33.0509 23.7388 32.5863 23.6183 32.2281 23.8412L28.4466 26.1941C28.0884 26.417 27.9723 26.8988 28.1872 27.2702C28.4021 27.6416 28.8667 27.7621 29.2248 27.5392Z" fill="#4AB048"/>
</svg>
