<svg width="40" height="32" viewBox="0 0 40 32" fill="none" xmlns="http://www.w3.org/2000/svg">
<path d="M9.61035 17.4234C6.15922 17.4234 3.37659 14.5082 3.37659 10.9298C3.37659 7.35148 6.15922 4.43634 9.61035 4.43634C13.0615 4.43634 15.8441 7.35148 15.8441 10.9298C15.8441 14.5082 13.0615 17.4234 9.61035 17.4234ZM9.61035 15.8649C12.1841 15.8649 14.2857 13.6633 14.2857 10.9298C14.2857 8.19639 12.1841 5.99478 9.61035 5.99478C7.03656 5.99478 4.93503 8.19639 4.93503 10.9298C4.93503 13.6633 7.03656 15.8649 9.61035 15.8649Z" fill="#4AB048"/>
<path d="M16.75 20.0656L12.9102 17.6831C11.9875 18.147 10.9571 18.4063 9.87013 18.4063C8.78315 18.4063 7.75278 18.147 6.8301 17.6831L1.95146 20.7102C0.738069 21.4631 0 22.7897 0 24.2177C0 25.4861 1.02822 26.5143 2.2966 26.5143H10.9091V25.9863C10.9091 25.6344 10.9536 25.2885 11.0388 24.9558H2.2966C1.88893 24.9558 1.55844 24.6253 1.55844 24.2177C1.55844 23.3288 2.01785 22.5031 2.77313 22.0345L6.95824 19.4377C7.88371 19.7843 8.86552 19.9647 9.87013 19.9647C10.8747 19.9647 11.8566 19.7843 12.782 19.4377L15.2672 20.9797L16.75 20.0656Z" fill="#4AB048"/>
<path d="M25.974 18.4623C21.2343 18.4623 17.4026 14.5029 17.4026 9.63116C17.4026 4.75945 21.2343 0.799988 25.974 0.799988C30.7137 0.799988 34.5454 4.75945 34.5454 9.63116C34.5454 14.5029 30.7137 18.4623 25.974 18.4623ZM25.974 16.9039C29.8414 16.9039 32.987 13.6534 32.987 9.63116C32.987 5.60893 29.8414 2.35843 25.974 2.35843C22.1067 2.35843 18.961 5.60893 18.961 9.63116C18.961 13.6534 22.1067 16.9039 25.974 16.9039Z" fill="#4AB048"/>
<path d="M14.7409 24.8142C13.9737 25.2872 13.5065 26.124 13.5065 27.0253V27.9474C13.5065 28.8773 14.2604 29.6312 15.1903 29.6312H36.7577C37.6877 29.6312 38.4416 28.8773 38.4416 27.9474V27.0253C38.4416 26.124 37.9743 25.2872 37.2071 24.8142L30.1798 20.4824C28.8511 21.0206 27.4306 21.3015 25.974 21.3015C24.5175 21.3015 23.097 21.0206 21.7683 20.4824L14.7409 24.8142ZM25.974 19.743C27.5187 19.743 28.9829 19.377 30.2941 18.7221L38.0249 23.4876C39.2525 24.2443 40 25.5833 40 27.0253V27.9474C40 29.738 38.5484 31.1896 36.7577 31.1896H15.1903C13.3997 31.1896 11.9481 29.738 11.9481 27.9474V27.0253C11.9481 25.5833 12.6956 24.2443 13.9232 23.4876L21.654 18.7221C22.9652 19.377 24.4294 19.743 25.974 19.743Z" fill="#4AB048"/>
</svg>
