<svg xmlns="http://www.w3.org/2000/svg" viewBox="0 0 15 20" width="15" height="20">
	<style>
		tspan { white-space:pre }
		.shp0 { fill: #4ab048 } 
	</style>
	<path id="Layer" class="shp0" d="M4.17,16.99c-0.55,-1.82 -0.85,-4.07 -0.85,-6.43c0,-2.6 0.61,-5.17 1.61,-7.35c0.87,-1.89 1.91,-3.21 2.64,-3.21c0.73,0 1.77,1.33 2.64,3.21c1,2.17 1.61,4.75 1.61,7.35c0,2.36 -0.3,4.61 -0.85,6.43l-0.09,0.29h-6.63zM10.27,16.46c0.47,-1.69 0.73,-3.74 0.73,-5.9c0,-2.47 -0.58,-4.94 -1.54,-7.01c-0.73,-1.58 -1.63,-2.73 -1.89,-2.73c-0.26,0 -1.17,1.15 -1.89,2.73c-0.95,2.07 -1.54,4.53 -1.54,7.01c0,2.16 0.26,4.21 0.73,5.9z" />
	<path id="Layer" class="shp0" d="M5.22,16.46h4.69l0.67,3.16h-6.04zM9.57,18.79l-0.32,-1.51h-3.36l-0.32,1.51z" />
	<path id="Layer" class="shp0" d="M7.57,9.88c-0.98,0 -1.78,-0.8 -1.78,-1.78c0,-0.98 0.8,-1.78 1.78,-1.78c0.98,0 1.78,0.8 1.78,1.78c0,0.98 -0.8,1.78 -1.78,1.78zM7.57,9.05c0.53,0 0.96,-0.43 0.96,-0.96c0,-0.53 -0.43,-0.96 -0.96,-0.96c-0.53,0 -0.96,0.43 -0.96,0.96c0,0.53 0.43,0.96 0.96,0.96z" />
	<path id="Layer" class="shp0" d="M3.36,19.53c0.06,0.44 -0.52,0.65 -0.76,0.27l-2.24,-3.65c-0.11,-0.18 -0.07,-0.41 0.09,-0.54l2.95,-2.35c0.24,-0.19 0.6,-0.06 0.66,0.24l0.47,2.19c0.03,0.15 -0.02,0.3 -0.13,0.4l-1.36,1.16zM2.19,17.14c-0.02,-0.14 0.03,-0.28 0.14,-0.37l1.34,-1.15l-0.28,-1.3l-2.14,1.71l1.01,1.65z" />
	<path id="Layer" class="shp0" d="M11.95,17.24l-1.36,-1.16c-0.11,-0.1 -0.17,-0.25 -0.13,-0.4l0.47,-2.19c0.06,-0.3 0.42,-0.43 0.66,-0.24l2.95,2.35c0.16,0.13 0.2,0.36 0.09,0.54l-2.24,3.65c-0.23,0.38 -0.82,0.17 -0.76,-0.27zM12.72,17.68l1.01,-1.65l-2.14,-1.71l-0.28,1.3l1.34,1.15c0.11,0.09 0.16,0.23 0.14,0.37z" />
</svg>