<svg width="30" height="40" viewBox="0 0 30 40" fill="none" xmlns="http://www.w3.org/2000/svg">
<path d="M20.5403 32.9225C21.4805 29.5454 22 25.4431 22 21.1252C22 16.1805 20.8333 11.2551 18.9295 7.11317C17.4775 3.95428 15.6642 1.64612 15.1411 1.64612C14.618 1.64612 12.8047 3.95428 11.3528 7.11317C9.44897 11.2551 8.28229 16.1805 8.28229 21.1252C8.28229 25.4431 8.80173 29.5454 9.74198 32.9225H20.5403ZM8.33517 33.9825C7.23962 30.3386 6.63617 25.8505 6.63617 21.1252C6.63617 15.9328 7.85785 10.7752 9.85708 6.42569C11.5918 2.65164 13.6749 0 15.1411 0C16.6073 0 18.6905 2.65164 20.4252 6.42569C22.4244 10.7752 23.6461 15.9328 23.6461 21.1252C23.6461 25.8505 23.0427 30.3386 21.9471 33.9825L21.7709 34.5686H8.51138L8.33517 33.9825Z" fill="#D412A7"/>
<path d="M19.1437 37.5865L18.5022 34.5686H11.7792L11.1377 37.5865H19.1437ZM10.4462 32.9225H19.8352L21.1765 39.2326H9.10492L10.4462 32.9225Z" fill="#D412A7"/>
<path d="M15.1408 19.7535C13.171 19.7535 11.5742 18.1566 11.5742 16.1869C11.5742 14.2171 13.171 12.6203 15.1408 12.6203C17.1105 12.6203 18.7074 14.2171 18.7074 16.1869C18.7074 18.1566 17.1105 19.7535 15.1408 19.7535ZM15.1408 18.1073C16.2014 18.1073 17.0612 17.2475 17.0612 16.1869C17.0612 15.1262 16.2014 14.2664 15.1408 14.2664C14.0801 14.2664 13.2203 15.1262 13.2203 16.1869C13.2203 17.2475 14.0801 18.1073 15.1408 18.1073Z" fill="#D412A7"/>
<path d="M6.72243 39.0583C6.84814 39.9426 5.6731 40.3659 5.20602 39.6046L0.72161 32.2958C0.504315 31.9417 0.585058 31.4811 0.909867 31.222L6.80687 26.5176C7.28519 26.136 7.99787 26.3913 8.12519 26.9898L9.05703 31.37C9.11977 31.6649 9.01624 31.9706 8.78718 32.1666L6.07291 34.4898L6.72243 39.0583ZM4.37958 34.2741C4.33996 33.9955 4.44545 33.716 4.65925 33.533L7.34515 31.2341L6.79224 28.635L2.50517 32.0551L4.53426 35.3621L4.37958 34.2741Z" fill="#D412A7"/>
<path d="M23.255 39.0583C23.1293 39.9426 24.3043 40.3659 24.7714 39.6046L29.2558 32.2958C29.4731 31.9417 29.3924 31.4811 29.0676 31.222L23.1705 26.5176C22.6922 26.136 21.9795 26.3913 21.8522 26.9898L20.9204 31.37C20.8576 31.6649 20.9612 31.9706 21.1902 32.1666L23.9045 34.4898L23.255 39.0583ZM25.5978 34.2741C25.6375 33.9955 25.532 33.716 25.3182 33.533L22.6323 31.2341L23.1852 28.635L27.4722 32.0551L25.4432 35.3621L25.5978 34.2741Z" fill="#D412A7"/>
</svg>
